<svg xmlns="http://www.w3.org/2000/svg" viewBox="0 0 48 48" width="48" height="48">
  <defs>
    <linearGradient id="bg" x1="0%" y1="0%" x2="100%" y2="100%">
      <stop offset="0%" style="stop-color:#3584e4"/>
      <stop offset="100%" style="stop-color:#1c71d8"/>
    </linearGradient>
    <linearGradient id="fan" x1="0%" y1="0%" x2="100%" y2="100%">
      <stop offset="0%" style="stop-color:#ffffff"/>
      <stop offset="100%" style="stop-color:#deddda"/>
    </linearGradient>
  </defs>
  <rect x="2" y="2" width="44" height="44" rx="8" fill="url(#bg)"/>
  <g transform="translate(24,24)">
    <circle cx="0" cy="0" r="4" fill="#1c71d8"/>
    <g fill="url(#fan)">
      <path d="M0,-4 C4,-4 6,-8 4,-14 C2,-18 -2,-18 -4,-14 C-6,-8 -4,-4 0,-4" transform="rotate(0)"/>
      <path d="M0,-4 C4,-4 6,-8 4,-14 C2,-18 -2,-18 -4,-14 C-6,-8 -4,-4 0,-4" transform="rotate(120)"/>
      <path d="M0,-4 C4,-4 6,-8 4,-14 C2,-18 -2,-18 -4,-14 C-6,-8 -4,-4 0,-4" transform="rotate(240)"/>
    </g>
    <circle cx="0" cy="0" r="3" fill="#ffffff"/>
  </g>
  <path d="M36,36 L40,40" stroke="#f66151" stroke-width="3" stroke-linecap="round"/>
  <path d="M38,34 L42,38" stroke="#f66151" stroke-width="2" stroke-linecap="round"/>
  <path d="M34,38 L38,42" stroke="#f66151" stroke-width="2" stroke-linecap="round"/>
</svg>
